# xmcd
#
# Track frame offsets: 
#        150
#        11820
#        25697
#        40112
#        53362
#        66317
#        77875
#        89560
#        102147
#        114654
#
# Disc length: 1667 seconds
#
# Revision: 2
# Processed by: cddbd v1.5.2PL0 Copyright (c) Steve Scherf et al.
# Submitted via: ExactAudioCopy v0.99pb5
#
DISCID=7706810a
DTITLE=Moe Bandy And Joe Stampley - Super Hits
DYEAR=1999
DGENRE=Country
TTITLE0=Just Good Ol' Boys
TTITLE1=I Cheated Me Right Out Of You
TTITLE2=Hank Williams, You Wrote My Life
TTITLE3=Bandy The Rodeo Clown
TTITLE4=Where's The Dress
TTITLE5=Holding The Bag
TTITLE6=Roll On Big Mama
TTITLE7=Red Wine And Blue Memories
TTITLE8=Do You Ever Fool Around
TTITLE9=Hey Joe (Hey Moe)
EXTD=ID3G:   2
EXTT0=
EXTT1=
EXTT2=
EXTT3=
EXTT4=
EXTT5=
EXTT6=
EXTT7=
EXTT8=
EXTT9=
PLAYORDER=
